<svg width="18" height="18" viewBox="0 0 18 18" fill="none" xmlns="http://www.w3.org/2000/svg">
<path fill-rule="evenodd" clip-rule="evenodd" d="M4.3125 15.6064H14.0625C14.6095 15.6064 15.1341 15.3891 15.5209 15.0023C15.9077 14.6155 16.125 14.0909 16.125 13.5439V9.41885C16.125 9.26967 16.0657 9.12659 15.9602 9.0211C15.8548 8.91562 15.7117 8.85635 15.5625 8.85635H13.125V3.0011C13.125 1.93385 11.9183 1.31285 11.0497 1.9331L10.9185 2.02685C10.6311 2.23087 10.2872 2.34022 9.93477 2.33968C9.58231 2.33915 9.23879 2.22875 8.952 2.02385C8.47322 1.6831 7.90016 1.5 7.3125 1.5C6.72484 1.5 6.15178 1.6831 5.673 2.02385C5.38621 2.22875 5.04269 2.33915 4.69023 2.33968C4.33777 2.34022 3.99391 2.23087 3.7065 2.02685L3.57525 1.9331C2.70675 1.31285 1.5 1.9331 1.5 3.0011V12.7939C1.5 13.5398 1.79632 14.2551 2.32376 14.7826C2.85121 15.31 3.56658 15.6064 4.3125 15.6064ZM6.327 2.93885C6.61496 2.73444 6.95936 2.62462 7.3125 2.62462C7.66564 2.62462 8.01004 2.73444 8.298 2.93885C8.77553 3.28019 9.34767 3.46401 9.93465 3.46468C10.5216 3.46536 11.0942 3.28285 11.5725 2.9426L11.7037 2.84885C11.7318 2.82891 11.7647 2.81705 11.799 2.81458C11.8333 2.8121 11.8676 2.81911 11.8982 2.83483C11.9288 2.85054 11.9545 2.87437 11.9724 2.90369C11.9904 2.93302 11.9999 2.96672 12 3.0011V13.5439C12 13.8814 12.081 14.2001 12.225 14.4814H4.3125C3.86495 14.4814 3.43573 14.3036 3.11926 13.9871C2.80279 13.6706 2.625 13.2414 2.625 12.7939V3.0011C2.62509 2.96672 2.63463 2.93302 2.65259 2.90369C2.67054 2.87437 2.69621 2.85054 2.72679 2.83483C2.75738 2.81911 2.79169 2.8121 2.82599 2.81458C2.86028 2.81705 2.89324 2.82891 2.92125 2.84885L3.0525 2.9426C3.53081 3.28285 4.10337 3.46536 4.69035 3.46468C5.27733 3.46401 5.84947 3.28019 6.327 2.93885ZM13.125 13.5439V9.98135H15V13.5439C15 13.7925 14.9012 14.0309 14.7254 14.2068C14.5496 14.3826 14.3111 14.4814 14.0625 14.4814C13.8139 14.4814 13.5754 14.3826 13.3996 14.2068C13.2238 14.0309 13.125 13.7925 13.125 13.5439Z" fill="white"/>
<path d="M10.125 7.3125C10.125 7.16332 10.0657 7.02024 9.96025 6.91475C9.85476 6.80926 9.71168 6.75 9.5625 6.75H5.0625C4.91332 6.75 4.77024 6.80926 4.66475 6.91475C4.55926 7.02024 4.5 7.16332 4.5 7.3125C4.5 7.46168 4.55926 7.60476 4.66475 7.71025C4.77024 7.81574 4.91332 7.875 5.0625 7.875H9.5625C9.71168 7.875 9.85476 7.81574 9.96025 7.71025C10.0657 7.60476 10.125 7.46168 10.125 7.3125ZM9.375 9.5625C9.375 9.41332 9.31574 9.27024 9.21025 9.16475C9.10476 9.05926 8.96168 9 8.8125 9H5.0625C4.91332 9 4.77024 9.05926 4.66475 9.16475C4.55926 9.27024 4.5 9.41332 4.5 9.5625C4.5 9.71168 4.55926 9.85476 4.66475 9.96025C4.77024 10.0657 4.91332 10.125 5.0625 10.125H8.8125C8.96168 10.125 9.10476 10.0657 9.21025 9.96025C9.31574 9.85476 9.375 9.71168 9.375 9.5625ZM9.5625 11.25C9.71168 11.25 9.85476 11.3093 9.96025 11.4148C10.0657 11.5202 10.125 11.6633 10.125 11.8125C10.125 11.9617 10.0657 12.1048 9.96025 12.2102C9.85476 12.3157 9.71168 12.375 9.5625 12.375H5.0625C4.91332 12.375 4.77024 12.3157 4.66475 12.2102C4.55926 12.1048 4.5 11.9617 4.5 11.8125C4.5 11.6633 4.55926 11.5202 4.66475 11.4148C4.77024 11.3093 4.91332 11.25 5.0625 11.25H9.5625Z" fill="white"/>
</svg>
