<svg width="21" height="23" viewBox="0 0 21 23" fill="none" xmlns="http://www.w3.org/2000/svg">
<rect width="20.9211" height="22.0877" rx="6.94737" fill="white"/>
<path d="M6.46935 10.7469C6.42676 11.5612 6.47576 12.4281 5.74835 12.9735C5.58111 13.0986 5.4454 13.2611 5.35202 13.4479C5.25865 13.6348 5.21019 13.8409 5.21051 14.0497C5.21051 14.6313 5.66668 15.1271 6.26051 15.1271H14.6605C15.2543 15.1271 15.7105 14.6313 15.7105 14.0497C15.7105 13.6262 15.511 13.2272 15.1727 12.9735C14.4453 12.4281 14.4943 11.5612 14.4517 10.7469C14.3992 9.72378 13.9558 8.75989 13.2131 8.05429C12.4703 7.34869 11.485 6.95526 10.4605 6.95526C9.43605 6.95526 8.4507 7.34869 7.70797 8.05429C6.96524 8.75989 6.52184 9.72378 6.46935 10.7469Z" stroke="black" stroke-linecap="round" stroke-linejoin="round"/>
<path d="M12.2105 15.1272C12.2105 15.5913 12.0261 16.0364 11.6979 16.3646C11.3698 16.6928 10.9246 16.8772 10.4605 16.8772C9.99638 16.8772 9.55126 16.6928 9.22307 16.3646C8.89488 16.0364 8.71051 15.5913 8.71051 15.1272M9.58551 5.86676C9.58551 6.34976 9.97751 6.96051 10.4605 6.96051C10.9435 6.96051 11.3355 6.34976 11.3355 5.86676C11.3355 5.38376 10.9435 5.21051 10.4605 5.21051C9.97751 5.21051 9.58551 5.38376 9.58551 5.86676Z" stroke="black" stroke-linecap="round" stroke-linejoin="round"/>
</svg>
