<svg width="34" height="34" viewBox="0 0 34 34" fill="none" xmlns="http://www.w3.org/2000/svg">
<rect x="0.425" y="0.425031" width="33.15" height="33.15" rx="6.375" fill="#1D1D1D" stroke="#333333" stroke-width="0.85"/>
<path d="M13.0535 8.57733H13.7425C13.8751 8.57733 14.0023 8.63001 14.0961 8.72378C14.1898 8.81755 14.2425 8.94472 14.2425 9.07733C14.2425 9.20994 14.1898 9.33712 14.0961 9.43088C14.0023 9.52465 13.8751 9.57733 13.7425 9.57733H13.0755C12.3675 9.57733 11.8655 9.57733 11.4745 9.60933C11.0885 9.64133 10.8525 9.70133 10.6675 9.79533C10.2912 9.98708 9.98524 10.293 9.7935 10.6693C9.6995 10.8543 9.6395 11.0893 9.6075 11.4763C9.5755 11.8673 9.5755 12.3693 9.5755 13.0773V13.7443C9.5755 13.8769 9.52282 14.0041 9.42905 14.0979C9.33529 14.1917 9.20811 14.2443 9.0755 14.2443C8.94289 14.2443 8.81572 14.1917 8.72195 14.0979C8.62818 14.0041 8.5755 13.8769 8.5755 13.7443V13.0553C8.5755 12.3743 8.5755 11.8323 8.6115 11.3953C8.6475 10.9463 8.7245 10.5653 8.9025 10.2153C9.19012 9.65087 9.64904 9.19195 10.2135 8.90433C10.5635 8.72633 10.9445 8.64933 11.3935 8.61333C11.8305 8.57733 12.3725 8.57733 13.0535 8.57733ZM22.6765 9.60933C22.2855 9.57733 21.7835 9.57733 21.0755 9.57733H20.4085C20.2759 9.57733 20.1487 9.52465 20.0549 9.43088C19.9612 9.33712 19.9085 9.20994 19.9085 9.07733C19.9085 8.94472 19.9612 8.81755 20.0549 8.72378C20.1487 8.63001 20.2759 8.57733 20.4085 8.57733H21.0975C21.7785 8.57733 22.3205 8.57733 22.7575 8.61333C23.2065 8.64933 23.5875 8.72633 23.9375 8.90433C24.502 9.19195 24.9609 9.65087 25.2485 10.2153C25.4265 10.5653 25.5035 10.9463 25.5395 11.3953C25.5755 11.8323 25.5755 12.3743 25.5755 13.0553V13.7443C25.5755 13.8769 25.5228 14.0041 25.4291 14.0979C25.3353 14.1917 25.2081 14.2443 25.0755 14.2443C24.9429 14.2443 24.8157 14.1917 24.7219 14.0979C24.6282 14.0041 24.5755 13.8769 24.5755 13.7443V13.0773C24.5755 12.3693 24.5755 11.8673 24.5435 11.4763C24.5115 11.0903 24.4515 10.8543 24.3575 10.6693C24.1658 10.293 23.8598 9.98708 23.4835 9.79533C23.2985 9.70133 23.0635 9.64133 22.6765 9.60933ZM9.0755 19.9103C9.20811 19.9103 9.33529 19.963 9.42905 20.0568C9.52282 20.1505 9.5755 20.2777 9.5755 20.4103V21.0773C9.5755 21.7853 9.5755 22.2873 9.6075 22.6783C9.6395 23.0643 9.6995 23.3003 9.7935 23.4853C9.98524 23.8616 10.2912 24.1676 10.6675 24.3593C10.8525 24.4533 11.0875 24.5133 11.4745 24.5453C11.8665 24.5773 12.3675 24.5773 13.0755 24.5773H13.7425C13.8751 24.5773 14.0023 24.63 14.0961 24.7238C14.1898 24.8175 14.2425 24.9447 14.2425 25.0773C14.2425 25.2099 14.1898 25.3371 14.0961 25.4309C14.0023 25.5247 13.8751 25.5773 13.7425 25.5773H13.0535C12.3725 25.5773 11.8305 25.5773 11.3935 25.5413C10.9445 25.5053 10.5635 25.4283 10.2135 25.2503C9.64904 24.9627 9.19012 24.5038 8.9025 23.9393C8.7245 23.5893 8.6475 23.2083 8.6115 22.7593C8.5755 22.3223 8.5755 21.7803 8.5755 21.0993V20.4103C8.5755 20.2777 8.62818 20.1505 8.72195 20.0568C8.81572 19.963 8.94289 19.9103 9.0755 19.9103ZM25.0755 19.9103C25.2081 19.9103 25.3353 19.963 25.4291 20.0568C25.5228 20.1505 25.5755 20.2777 25.5755 20.4103V21.0993C25.5755 21.7803 25.5755 22.3233 25.5395 22.7593C25.5035 23.2083 25.4265 23.5893 25.2485 23.9393C24.9609 24.5038 24.502 24.9627 23.9375 25.2503C23.5875 25.4283 23.2065 25.5053 22.7575 25.5413C22.3215 25.5773 21.7785 25.5773 21.0975 25.5773H20.4085C20.2759 25.5773 20.1487 25.5247 20.0549 25.4309C19.9612 25.3371 19.9085 25.2099 19.9085 25.0773C19.9085 24.9447 19.9612 24.8175 20.0549 24.7238C20.1487 24.63 20.2759 24.5773 20.4085 24.5773H21.0755C21.7835 24.5773 22.2855 24.5773 22.6765 24.5453C23.0625 24.5133 23.2985 24.4533 23.4835 24.3593C23.8598 24.1676 24.1658 23.8616 24.3575 23.4853C24.4515 23.3003 24.5115 23.0653 24.5435 22.6783C24.5755 22.2863 24.5755 21.7853 24.5755 21.0773V20.4103C24.5755 20.2777 24.6282 20.1505 24.7219 20.0568C24.8157 19.963 24.9429 19.9103 25.0755 19.9103Z" fill="white"/>
<path fill-rule="evenodd" clip-rule="evenodd" d="M13.6571 11.5768H13.9971C14.2601 11.5768 14.4871 11.5768 14.6751 11.5918C14.8721 11.6078 15.0691 11.6438 15.2581 11.7398C15.5406 11.8837 15.7702 12.1133 15.9141 12.3958C16.0101 12.5858 16.0461 12.7818 16.0621 12.9788C16.0771 13.1668 16.0771 13.3938 16.0771 13.6578V13.9958C16.0771 14.2598 16.0771 14.4868 16.0621 14.6748C16.0523 14.8772 16.0016 15.0755 15.9131 15.2578C15.7695 15.5402 15.5402 15.7698 15.2581 15.9138C15.0681 16.0098 14.8721 16.0458 14.6751 16.0618C14.4871 16.0768 14.2601 16.0768 13.9961 16.0768H13.6581C13.3941 16.0768 13.1671 16.0768 12.9791 16.0618C12.7767 16.052 12.5784 16.0013 12.3961 15.9128C12.1137 15.7692 11.8841 15.5399 11.7401 15.2578C11.6519 15.0755 11.6016 14.8771 11.5921 14.6748C11.5771 14.4868 11.5771 14.2598 11.5771 13.9958V13.6578C11.5771 13.3938 11.5771 13.1668 11.5921 12.9788C11.6081 12.7818 11.6441 12.5848 11.7401 12.3958C11.8839 12.1133 12.1136 11.8837 12.3961 11.7398C12.5861 11.6438 12.7821 11.6078 12.9791 11.5918C13.1671 11.5768 13.3941 11.5768 13.6581 11.5768M13.0621 12.5888C12.9897 12.5903 12.9183 12.6049 12.8511 12.6318C12.7573 12.6797 12.681 12.756 12.6331 12.8498C12.6063 12.9167 12.5917 12.9878 12.5901 13.0598C12.5787 13.2653 12.5744 13.4711 12.5771 13.6768V13.9768C12.5771 14.2648 12.5771 14.4508 12.5891 14.5928C12.5906 14.6652 12.6051 14.7366 12.6321 14.8038C12.68 14.8976 12.7563 14.9739 12.8501 15.0218C12.9169 15.0486 12.9881 15.0632 13.0601 15.0648C13.2031 15.0768 13.3891 15.0768 13.6771 15.0768H13.9771C14.2651 15.0768 14.4511 15.0768 14.5931 15.0648C14.6654 15.0633 14.7369 15.0488 14.8041 15.0218C14.8979 14.9739 14.9742 14.8976 15.0221 14.8038C15.0489 14.737 15.0635 14.6658 15.0651 14.5938C15.0771 14.4498 15.0771 14.2638 15.0771 13.9768V13.6768C15.0771 13.3888 15.0771 13.2028 15.0651 13.0608C15.0636 12.9885 15.049 12.917 15.0221 12.8498C14.9742 12.756 14.8979 12.6797 14.8041 12.6318C14.7372 12.605 14.6661 12.5904 14.5941 12.5888C14.3886 12.5778 14.1828 12.5738 13.9771 12.5768H13.6771C13.3891 12.5768 13.2041 12.5768 13.0621 12.5888ZM13.9971 18.0768H13.6571C13.3941 18.0768 13.1671 18.0768 12.9791 18.0918C12.7767 18.1016 12.5784 18.1523 12.3961 18.2408C12.1137 18.3844 11.8841 18.6137 11.7401 18.8958C11.6441 19.0858 11.6081 19.2818 11.5921 19.4788C11.5771 19.6668 11.5771 19.8938 11.5771 20.1578V20.4958C11.5771 20.7598 11.5771 20.9868 11.5921 21.1738C11.6081 21.3718 11.6441 21.5688 11.7401 21.7578C11.8839 22.0403 12.1136 22.27 12.3961 22.4138C12.5861 22.5098 12.7821 22.5458 12.9791 22.5618C13.1671 22.5768 13.3941 22.5768 13.6581 22.5768H13.9961C14.2601 22.5768 14.4871 22.5768 14.6751 22.5618C14.8721 22.5458 15.0691 22.5098 15.2581 22.4138C15.5406 22.27 15.7702 22.0403 15.9141 21.7578C16.0101 21.5678 16.0461 21.3718 16.0621 21.1738C16.0771 20.9868 16.0771 20.7598 16.0771 20.4958V20.1578C16.0771 19.8938 16.0771 19.6668 16.0621 19.4798C16.0524 19.2771 16.0018 19.0784 15.9131 18.8958C15.7693 18.6138 15.5401 18.3846 15.2581 18.2408C15.0758 18.1523 14.8775 18.1016 14.6751 18.0918C14.4871 18.0768 14.2601 18.0768 13.9961 18.0768M12.8491 19.1318C12.9159 19.105 12.9871 19.0904 13.0591 19.0888C13.2041 19.0768 13.3901 19.0768 13.6771 19.0768H13.9771C14.2651 19.0768 14.4511 19.0768 14.5931 19.0888C14.6654 19.0903 14.7369 19.1049 14.8041 19.1318C14.8979 19.1797 14.9742 19.256 15.0221 19.3498C15.0489 19.4167 15.0635 19.4878 15.0651 19.5598C15.0771 19.7028 15.0771 19.8888 15.0771 20.1768V20.4768C15.0771 20.7648 15.0771 20.9508 15.0651 21.0928C15.0636 21.1652 15.049 21.2366 15.0221 21.3038C14.9742 21.3976 14.8979 21.4739 14.8041 21.5218C14.7372 21.5486 14.6661 21.5632 14.5941 21.5648C14.3886 21.5759 14.1828 21.5799 13.9771 21.5768H13.6771C13.3891 21.5768 13.2031 21.5768 13.0611 21.5648C12.9887 21.5633 12.9173 21.5488 12.8501 21.5218C12.7563 21.4739 12.68 21.3976 12.6321 21.3038C12.6053 21.237 12.5907 21.1658 12.5891 21.0938C12.578 20.8883 12.574 20.6826 12.5771 20.4768V20.1768C12.5771 19.8888 12.5771 19.7028 12.5891 19.5608C12.5906 19.4885 12.6051 19.417 12.6321 19.3498C12.68 19.256 12.7553 19.1797 12.8491 19.1318ZM20.1571 11.5768H20.4971C20.7601 11.5768 20.9871 11.5768 21.1751 11.5918C21.3721 11.6078 21.5691 11.6438 21.7581 11.7398C22.0406 11.8837 22.2702 12.1133 22.4141 12.3958C22.5101 12.5858 22.5461 12.7818 22.5621 12.9788C22.5771 13.1668 22.5771 13.3938 22.5771 13.6578V13.9958C22.5771 14.2598 22.5771 14.4868 22.5621 14.6748C22.5526 14.8771 22.5023 15.0755 22.4141 15.2578C22.2702 15.5403 22.0406 15.77 21.7581 15.9138C21.5681 16.0098 21.3721 16.0458 21.1741 16.0618C20.9871 16.0768 20.7601 16.0768 20.4961 16.0768H20.1581C19.8941 16.0768 19.6671 16.0768 19.4801 16.0618C19.2773 16.0522 19.0787 16.0015 18.8961 15.9128C18.6141 15.7691 18.3848 15.5398 18.2411 15.2578C18.1526 15.0755 18.1019 14.8772 18.0921 14.6748C18.0771 14.4868 18.0771 14.2598 18.0771 13.9958V13.6578C18.0771 13.3938 18.0771 13.1668 18.0921 12.9788C18.1081 12.7818 18.1441 12.5848 18.2411 12.3958C18.3847 12.1135 18.614 11.8838 18.8961 11.7398C19.0861 11.6438 19.2821 11.6078 19.4791 11.5918C19.6671 11.5768 19.8941 11.5768 20.1581 11.5768M19.5621 12.5888C19.4897 12.5903 19.4183 12.6049 19.3511 12.6318C19.2573 12.6797 19.181 12.756 19.1331 12.8498C19.1063 12.9167 19.0917 12.9878 19.0901 13.0598C19.0787 13.2653 19.0744 13.4711 19.0771 13.6768V13.9768C19.0771 14.2648 19.0771 14.4508 19.0891 14.5928C19.0906 14.6652 19.1051 14.7366 19.1321 14.8038C19.18 14.8976 19.2563 14.9739 19.3501 15.0218C19.4169 15.0486 19.4881 15.0632 19.5601 15.0648C19.7031 15.0768 19.8891 15.0768 20.1771 15.0768H20.4771C20.7651 15.0768 20.9511 15.0768 21.0931 15.0648C21.1654 15.0633 21.2369 15.0488 21.3041 15.0218C21.3979 14.9739 21.4742 14.8976 21.5221 14.8038C21.5489 14.737 21.5635 14.6658 21.5651 14.5938C21.5771 14.4508 21.5771 14.2648 21.5771 13.9768V13.6768C21.5771 13.3888 21.5771 13.2028 21.5651 13.0608C21.5636 12.9885 21.549 12.917 21.5221 12.8498C21.4742 12.756 21.3979 12.6797 21.3041 12.6318C21.2372 12.605 21.1661 12.5904 21.0941 12.5888C20.8886 12.5778 20.6828 12.5738 20.4771 12.5768H20.1771C19.8891 12.5768 19.7041 12.5768 19.5621 12.5888Z" fill="white"/>
<path d="M19.5763 18.5776C19.5763 18.445 19.5236 18.3178 19.4298 18.224C19.3361 18.1302 19.2089 18.0776 19.0763 18.0776C18.9437 18.0776 18.8165 18.1302 18.7227 18.224C18.629 18.3178 18.5763 18.445 18.5763 18.5776V19.3276C18.5763 19.7254 18.7343 20.1069 19.0156 20.3882C19.2969 20.6695 19.6785 20.8276 20.0763 20.8276H21.5763C21.7089 20.8276 21.8361 20.8802 21.9298 20.974C22.0236 21.0678 22.0763 21.195 22.0763 21.3276V22.0776C22.0763 22.2102 22.129 22.3373 22.2227 22.4311C22.3165 22.5249 22.4437 22.5776 22.5763 22.5776C22.7089 22.5776 22.8361 22.5249 22.9298 22.4311C23.0236 22.3373 23.0763 22.2102 23.0763 22.0776V21.3276C23.0763 20.9297 22.9183 20.5482 22.637 20.2669C22.3556 19.9856 21.9741 19.8276 21.5763 19.8276H20.0763C19.9437 19.8276 19.8165 19.7749 19.7227 19.6811C19.629 19.5873 19.5763 19.4602 19.5763 19.3276V18.5776Z" fill="white"/>
</svg>
